<?xml version="1.0" standalone="no"?>
<!DOCTYPE svg PUBLIC "-//W3C//DTD SVG 20010904//EN"
 "http://www.w3.org/TR/2001/REC-SVG-20010904/DTD/svg10.dtd">
<svg version="1.0" xmlns="http://www.w3.org/2000/svg"
 width="552.000000pt" height="552.000000pt" viewBox="0 0 552.000000 552.000000"
 preserveAspectRatio="xMidYMid meet">
<metadata>
Created by potrace 1.14, written by Peter Selinger 2001-2017
</metadata>
<g transform="translate(0.000000,552.000000) scale(0.100000,-0.100000)"
fill="#000000" stroke="none">
<path d="M2737 5442 c-19 -42 -52 -113 -73 -157 -77 -167 -97 -212 -122 -265
-13 -30 -67 -147 -120 -260 -108 -234 -144 -312 -179 -390 -14 -30 -56 -121
-94 -202 -70 -151 -235 -508 -272 -588 -11 -25 -20 -48 -19 -52 1 -5 -2 -8 -8
-8 -5 0 -10 -6 -10 -13 0 -8 -18 -51 -40 -96 -22 -45 -40 -84 -40 -87 0 -3
-20 -46 -45 -95 -24 -49 -45 -91 -45 -94 0 -3 -23 -53 -50 -111 -28 -58 -50
-108 -50 -110 0 -2 -27 -60 -60 -130 -33 -69 -60 -128 -60 -130 0 -2 -22 -51
-50 -109 -27 -58 -50 -108 -51 -113 -1 -7 -23 -51 -40 -82 -5 -8 -12 -22 -15
-30 -3 -8 -14 -33 -24 -55 -10 -22 -37 -80 -60 -130 -23 -49 -54 -117 -70
-150 -15 -33 -50 -109 -78 -170 -27 -60 -71 -155 -97 -210 -25 -55 -45 -100
-44 -100 1 0 -4 -11 -11 -25 -8 -14 -13 -28 -12 -32 1 -5 -3 -8 -8 -8 -6 0
-10 -5 -10 -11 0 -12 -18 -51 -106 -237 -34 -73 -64 -136 -65 -140 -1 -4 -20
-45 -42 -92 -21 -47 -46 -101 -54 -120 -8 -19 -19 -42 -24 -50 -5 -8 -14 -28
-20 -43 -7 -16 -31 -69 -55 -119 -24 -49 -44 -94 -44 -100 0 -6 -6 -19 -13
-27 -8 -9 -20 -32 -27 -51 -8 -19 -38 -86 -67 -148 -29 -63 -53 -116 -53 -118
0 -2 -18 -40 -39 -84 l-40 -80 2540 0 c1396 0 2539 4 2539 8 0 5 -3 12 -7 16
-5 4 -8 11 -8 14 0 4 -12 32 -27 62 -30 62 -74 157 -143 310 -27 58 -55 116
-64 130 -9 13 -15 26 -13 27 2 2 -9 29 -24 61 -24 52 -54 116 -114 247 -38 82
-85 184 -130 280 -23 50 -51 110 -62 135 -11 25 -35 77 -53 115 -18 39 -43 93
-55 120 -13 28 -43 93 -67 145 -25 52 -53 113 -63 135 -28 62 -78 170 -132
283 -26 57 -48 105 -48 107 0 3 -55 121 -136 294 -30 62 -54 115 -54 117 0 3
-20 46 -44 97 -24 51 -56 119 -71 152 -58 128 -84 182 -113 245 -16 36 -58
126 -92 200 -75 163 -101 219 -153 330 -22 47 -41 87 -42 90 -1 3 -8 19 -15
35 -7 17 -13 33 -12 38 1 4 -2 7 -8 7 -5 0 -10 9 -10 20 0 11 -4 20 -10 20 -5
0 -10 6 -10 14 0 8 -9 31 -19 53 -37 73 -130 275 -136 293 -1 3 -16 34 -33 69
-18 36 -32 70 -32 78 0 7 -4 13 -10 13 -5 0 -10 5 -10 11 0 8 -140 321 -170
378 -5 9 -20 42 -34 74 -32 71 -69 151 -112 242 -18 39 -60 131 -94 205 -34
74 -72 156 -84 182 l-23 47 -36 -77z"/>
</g>
</svg>
